#!OML:ASF H:\ManfredETheater\Project 1\Capture day 1\Session 1\subject.ASF
:FULLY-SPECIFIED
:DEGREES
138
root 1.11913 17.8976 -14.5991 -178.718 -8.36585 178.397
lowerback 2.11627 -1.09256 -0.355816
upperback -4.34452 -1.54564 2.36409
thorax -5.61311 -0.770193 2.76948
lowerneck -17.5076 -2.37461 -3.56468
upperneck 17.9032 -2.66185 0.709678
head 8.52598 -1.5051 0.483716
rclavicle 1.66979e-014 1.59028e-014
rhumerus -36.214 -7.80412 -81.5773
rradius 37.8662
rwrist -2.02797
rhand -22.9818 -10.3553
rfingers 7.12502
rthumb 3.46068 -40.3069
lclavicle 1.66979e-014 1.59028e-014
lhumerus -44.9146 19.6347 73.3921
lradius 25.5699
lwrist -20.1082
lhand -9.27295 10.5936
lfingers 7.12502
lthumb 16.6837 39.8967
rfemur -12.9814 0.217978 23.191
rtibia 33.3986
rfoot -15.384 -14.4938
rtoes -4.18793
lfemur -18.455 -7.22701 -21.096
ltibia 39.8208
lfoot -17.6366 -4.99029
ltoes 9.98329
139
root 1.11942 17.9007 -14.6523 -178.524 -8.30004 178.425
lowerback 2.05922 -1.03605 -0.350733
upperback -4.35237 -1.47166 2.35555
thorax -5.59264 -0.734659 2.75134
lowerneck -17.4387 -2.41444 -3.62004
upperneck 17.9043 -2.71392 0.74046
head 8.51658 -1.53135 0.497251
rclavicle -2.98177e-015 4.45278e-014
rhumerus -36.2125 -8.30035 -81.393
rradius 36.5651
rwrist -1.25219
rhand -22.5981 -10.5634
rfingers 7.12502
rthumb 3.83122 -40.5087
lclavicle -2.98177e-015 4.45278e-014
lhumerus -44.6114 19.2406 73.8006
lradius 26.1518
lwrist -19.1353
lhand -9.6711 10.6622
lfingers 7.12502
lthumb 16.3004 39.9971
rfemur -12.9543 0.218476 23.244
rtibia 33.292
rfoot -15.4973 -14.4309
rtoes -4.20677
lfemur -18.4851 -7.26095 -21.0306
ltibia 39.8447
lfoot -17.7831 -4.91688
ltoes 9.92158
140
root 1.11948 17.9038 -14.7038 -178.328 -8.20621 178.431
lowerback 2.0041 -0.970215 -0.366251
upperback -4.36251 -1.38624 2.33979
thorax -5.57592 -0.692554 2.73669
lowerneck -17.3778 -2.45387 -3.67561
upperneck 17.9185 -2.76558 0.770649
head 8.5131 -1.55773 0.510511
rclavicle 3.04141e-014 5.1684e-014
rhumerus -36.2242 -8.78822 -81.1967
rradius 35.2791
rwrist -0.363782
rhand -22.2041 -10.7433
rfingers 7.12502
rthumb 4.21165 -40.6814
lclavicle 3.04141e-014 5.1684e-014
lhumerus -44.3078 18.7275 74.2929
lradius 26.807
lwrist -18.1147
lhand -10.0707 10.6681
lfingers 7.12502
lthumb 15.9156 40.0341
rfemur -12.9417 0.236582 23.2704
rtibia 33.199
rfoot -15.6116 -14.361
rtoes -4.22436
lfemur -18.5108 -7.27695 -20.9886
ltibia 39.8539
lfoot -17.9223 -4.84507
ltoes 9.86612
141
root 1.11932 17.9067 -14.7542 -178.129 -8.08894 178.405
lowerback 1.94934 -0.898104 -0.411675
upperback -4.37279 -1.29372 2.3149
thorax -5.55951 -0.64561 2.72899
lowerneck -17.3211 -2.48981 -3.7187
upperneck 17.9386 -2.81293 0.786792
head 8.51191 -1.58284 0.517457
rclavicle -1.31198e-014 1.43125e-014
rhumerus -36.2477 -9.2633 -80.9917
rradius 34.0143
rwrist 0.628266
rhand -21.8286 -10.8451
rfingers 7.12502
rthumb 4.57429 -40.7757
lclavicle -1.31198e-014 1.43125e-014
lhumerus -44.0108 18.1202 74.8462
lradius 27.5278
lwrist -17.0741
lhand -10.4702 10.6222
lfingers 7.12502
lthumb 15.5308 40.0185
rfemur -12.9418 0.262095 23.2607
rtibia 33.1249
rfoot -15.7308 -14.281
rtoes -4.23753
lfemur -18.5258 -7.27817 -20.98
ltibia 39.8446
lfoot -18.0561 -4.77598
ltoes 9.80965
142
root 1.119 17.9093 -14.8032 -177.929 -7.95314 178.35
lowerback 1.89517 -0.820842 -0.484232
upperback -4.38153 -1.19536 2.28058
thorax -5.54187 -0.594569 2.72642
lowerneck -17.2779 -2.52388 -3.75885
upperneck 17.9687 -2.85771 0.800917
head 8.51638 -1.60681 0.523362
rclavicle 1.2424e-014 3.33958e-014
rhumerus -36.283 -9.73082 -80.7772
rradius 32.7802
rwrist 1.72572
rhand -21.4858 -10.8587
rfingers 7.12502
rthumb 4.90531 -40.782
lclavicle 1.2424e-014 3.33958e-014
lhumerus -43.722 17.4463 75.4373
lradius 28.3037
lwrist -16.0432
lhand -10.874 10.5129
lfingers 7.12502
lthumb 15.1419 39.9389
rfemur -12.9558 0.305853 23.2183
rtibia 33.0718
rfoot -15.8536 -14.2094
rtoes -4.23323
lfemur -18.5306 -7.27115 -21.0031
ltibia 39.8156
lfoot -18.184 -4.70859
ltoes 9.7604
143
root 1.11867 17.9115 -14.8508 -177.727 -7.80672 178.274
lowerback 1.84335 -0.741925 -0.577306
upperback -4.38855 -1.09548 2.23955
thorax -5.52376 -0.541845 2.72844
lowerneck -17.2449 -2.55526 -3.78913
upperneck 17.9999 -2.89852 0.804589
head 8.52266 -1.62921 0.524521
rclavicle -2.00773e-014 1.51076e-014
rhumerus -36.3306 -10.1883 -80.5548
rradius 31.5931
rwrist 2.92109
rhand -21.1673 -10.8109
rfingers 7.12502
rthumb 5.21278 -40.7268
lclavicle -2.00773e-014 1.51076e-014
lhumerus -43.4485 16.717 76.0548
lradius 29.137
lwrist -15.0267
lhand -11.2769 10.3615
lfingers 7.12502
lthumb 14.7538 39.8164
rfemur -12.9832 0.365766 23.1536
rtibia 33.0389
rfoot -15.9749 -14.1553
rtoes -4.24097
lfemur -18.5282 -7.26254 -21.0493
ltibia 39.7696
lfoot -18.3083 -4.64025
ltoes 9.7005
